<svg xmlns="http://www.w3.org/2000/svg" width="16" height="16" viewBox="0 0 16 16"><path fill="#444" d="M12.055 5c.283-.2.555-.425.804-.674.52-.522.87-1.164.982-1.808.123-.706-.057-1.362-.494-1.798-.348-.348-.82-.533-1.365-.533-.775 0-1.593.372-2.242 1.02-1.038 1.04-1.643 2.473-1.97 3.497-.24-1.028-.72-2.416-1.656-3.35-.5-.502-1.142-.76-1.748-.76-.495 0-.965.172-1.317.523-.782.78-.676 2.153.235 3.064.325.326.705.596 1.105.82H1v4h1v7h12V9h1V5h-2.946zm-1.52-2.997c.434-.433.975-.692 1.447-.692.167 0 .402.036.57.204.407.407.178 1.35-.49 2.016-.686.687-1.61 1.16-2.412 1.47h-.792c.29-.9.813-2.132 1.678-2.997zm-6.88.51c-.01-.142 0-.41.19-.6.16-.16.373-.194.522-.194.332 0 .68.156.952.428.528.53.964 1.37 1.26 2.436l.022.086-.086-.023c-1.064-.295-1.906-.73-2.436-1.26-.247-.247-.403-.565-.426-.872zM7 15H3V8.5h4V15zm0-7H2V6h5v2zm6 7H9V8.5h4V15zm1-7H9V6h5v2z"/></svg>