<svg xmlns="http://www.w3.org/2000/svg" width="16" height="16" viewBox="0 0 16 16"><path fill="#444" d="M6.828 12.784c0 1.173-.725 2.1-2.777 2.175-1.202-.685-2.21-1.672-2.92-2.858.37-.914 1.527-1.61 2.85-1.596.375.004.725.064 1.043.167.874.607 1.578.987 1.755 1.68.033.14.05.283.05.43zM8 0C5.688 0 3.606.98 2.146 2.548c.577-.32 1.258-.51 1.983-.51h4.006l-.895.94H6.19c.74.425 1.136 1.3 1.136 2.266 0 .886-.49 1.6-1.184 2.142-.676.528-.805.75-.805 1.2 0 .382.808.954 1.18 1.232 1.294.97 1.556 1.58 1.556 2.795 0 1.23-1.077 2.455-2.904 2.87.88.334 1.834.517 2.83.517 4.42 0 8-3.582 8-8s-3.58-8-8-8zm4 6v2h-1V6H9V5h2V3h1v2h2v1h-2zm-6.285-.696c.186 1.418-.435 2.33-1.515 2.3S2.094 6.58 1.907 5.16c-.186-1.42.538-2.504 1.618-2.472s2.003 1.196 2.19 2.614zM3.45 10.032c-1.166 0-2.157.403-2.856.998C.21 10.095 0 9.072 0 8c0-.887.145-1.74.41-2.537.116 1.554 1.21 2.753 3.016 2.753.133 0 .262-.007.39-.016-.125.238-.214.503-.214.78 0 .47.258.736.576 1.046-.24 0-.473.007-.727.007z"/></svg>