<svg xmlns="http://www.w3.org/2000/svg" width="16" height="16" viewBox="0 0 16 16"><path fill="#444" d="M6 2c0-1.105.895-2 2-2s2 .895 2 2-.895 2-2 2-2-.895-2-2zm6.36 6c0-.906.734-1.64 1.64-1.64s1.64.734 1.64 1.64c0 .906-.734 1.64-1.64 1.64S12.36 8.907 12.36 8zm-1.603 4.243c0-.82.665-1.486 1.486-1.486s1.486.665 1.486 1.486c0 .82-.666 1.486-1.487 1.486s-1.486-.666-1.486-1.487zM6.654 14c0-.743.603-1.346 1.346-1.346s1.346.603 1.346 1.346c0 .743-.603 1.346-1.346 1.346S6.654 14.743 6.654 14zm-4.116-1.757c0-.673.546-1.22 1.22-1.22s1.218.547 1.218 1.22c0 .673-.546 1.22-1.22 1.22s-1.218-.547-1.218-1.22zM.896 8c0-.61.494-1.104 1.104-1.104S3.104 7.39 3.104 8c0 .61-.494 1.104-1.104 1.104S.896 8.61.896 8zm1.86-4.243c0-.552.45-1 1-1s1 .448 1 1-.447 1-1 1-1-.448-1-1zm11.298 0c0 1-.81 1.81-1.812 1.81s-1.812-.81-1.812-1.81.81-1.81 1.812-1.81 1.812.81 1.812 1.81z"/></svg>