<svg xmlns="http://www.w3.org/2000/svg" width="15" height="16" viewBox="0 0 15 16"><path fill="#444" d="M6.857 9.143v3.43q0 .463-.34.803t-.803.34h-4.57q-.465 0-.805-.34T0 12.572v-3.43q0-.463.34-.803T1.142 8h4.57q.465 0 .805.34t.34.803zm0-6.857v3.43q0 .463-.34.803t-.803.338h-4.57q-.465 0-.805-.34T0 5.716v-3.43q0-.463.34-.803t.803-.34h4.57q.465 0 .805.34t.34.804zm8 6.857v3.43q0 .463-.34.803t-.803.34h-4.57q-.465 0-.805-.34T8 12.572v-3.43q0-.463.34-.803T9.142 8h4.57q.465 0 .805.34t.34.803zm0-6.857v3.43q0 .463-.34.803t-.803.338h-4.57q-.465 0-.805-.34T8 5.716v-3.43q0-.463.34-.803t.803-.34h4.57q.465 0 .805.34t.34.804z"/></svg>